# xmcd
#
# Track frame offsets:
#	150
#	12378
#	25056
#	40252
#	54721
#	70830
#	85448
#	98519
#	113145
#	125627
#	144603
#	157677
#	167166
#	182777
#	194892
#	205492
#	218622
#	241604
#
# Disc length: 3236 seconds
#
# Revision: 1
# Processed by: cddbd v1.5.2PL0 Copyright (c) Steve Scherf et al.
# Submitted via: audiograbber 1.83.01
#
DISCID=fc0ca212
DTITLE=Chartbusters - Country 500 Vol.1d.7 8532-7
DYEAR=1900
DGENRE=karaoke
TTITLE0=The Osborne brothers - Rocky Top
TTITLE1=Tammy Wynette - Stand by your man
TTITLE2=Charlie Pride - All I Have to Offer You (Is Me)
TTITLE3=Loretta Lynn - Coal miners daughter
TTITLE4=Johnny Cash - A boy named Sue
TTITLE5=Lynn Anderson - Rose Garden
TTITLE6=Merle Haggard - Okie from Muskogee
TTITLE7=Dolly Parton - Coat of many colors
TTITLE8=Conway Twitty - Hello Darlin'
TTITLE9=Ray Price - For the good times
TTITLE10=Sammi Smith - Help Me Make It Through the Night
TTITLE11=Charlie Pride - Kiss an Angel Good Morning
TTITLE12=Donna Fargo - Funny Face
TTITLE13=Freddie Hart - Easy Loving
TTITLE14=Dottie West - Country Sunshine
TTITLE15=Charlie Rich - The Most Beautiful Girl
TTITLE16=Donna Fargo - The Happiest Girl in the Whole USA
TTITLE17=Data - data
EXTD=
EXTT0=
EXTT1=
EXTT2=
EXTT3=
EXTT4=
EXTT5=
EXTT6=
EXTT7=
EXTT8=
EXTT9=
EXTT10=
EXTT11=
EXTT12=
EXTT13=
EXTT14=
EXTT15=
EXTT16=
EXTT17=
PLAYORDER=
